<svg id="Layer_1" data-name="Layer 1" xmlns="http://www.w3.org/2000/svg" viewBox="0 0 120 120"><defs><style>.cls-1{fill:#3e3e3c;}</style></defs><title>00 tab_icons</title><path class="cls-1" d="M26.25,78.75H50.62A3.77,3.77,0,0,0,54.38,75V18.75a7.78,7.78,0,0,0-7.5-7.5H26.81a4.24,4.24,0,0,0-4.31,4.31V75A3.76,3.76,0,0,0,26.25,78.75Zm82.5-56.25v60a7.53,7.53,0,0,1-7.5,7.5H18.75a7.52,7.52,0,0,1-7.5-7.5v-60A11.28,11.28,0,0,0,0,33.75V90a11.28,11.28,0,0,0,11.25,11.25H46.88A3.76,3.76,0,0,1,50.62,105a3.77,3.77,0,0,0,3.76,3.75H65.62A3.77,3.77,0,0,0,69.38,105a3.76,3.76,0,0,1,3.74-3.75h35.63A11.28,11.28,0,0,0,120,90V33.75A11.28,11.28,0,0,0,108.75,22.5ZM69.38,78.75H93.19a4.24,4.24,0,0,0,4.31-4.31V15a3.76,3.76,0,0,0-3.75-3.75H73.12a7.78,7.78,0,0,0-7.5,7.5V75A3.77,3.77,0,0,0,69.38,78.75Z"/></svg>