<svg xmlns="http://www.w3.org/2000/svg" xmlns:xlink="http://www.w3.org/1999/xlink" id="Layer_1" x="0" y="0" enable-background="new 0 0 120 120" version="1.1" viewBox="0 0 120 120" xml:space="preserve"><style type="text/css">.st0{fill:#3e3e3c}</style><g><path d="M104,100h-2V56c0-2.2-1.8-4-4-4h-4c-2.2,0-4,1.8-4,4v44H78V56c0-2.2-1.8-4-4-4h-4c-2.2,0-4,1.8-4,4v44H54V56 c0-2.2-1.8-4-4-4h-4c-2.2,0-4,1.8-4,4v44H30V56c0-2.2-1.8-4-4-4h-4c-2.2,0-4,1.8-4,4v44h-2c-6.6,0-12,5.4-12,12v4c0,2.2,1.8,4,4,4 h104c2.2,0,4-1.8,4-4v-4C116,105.4,110.6,100,104,100z M114,28.8L64.6,1.6c-1.4-1-3-1.6-4.6-1.6s-3.2,0.6-4.6,1.6L6,28.8 c-1.2,0.8-2,2-2,3.4V36c0,2.2,1.8,4,4,4h104c2.2,0,4-1.8,4-4v-3.6C116,31,115.2,29.6,114,28.8z M60,32c-5.6,0-10-4.4-10-10 s4.4-10,10-10s10,4.4,10,10S65.6,32,60,32z" class="st0"/></g></svg>