<?xml version="1.0" encoding="utf-8"?>
<!-- Generator: Adobe Illustrator 22.1.0, SVG Export Plug-In . SVG Version: 6.00 Build 0)  -->
<svg version="1.1" id="Layer_1" xmlns="http://www.w3.org/2000/svg" xmlns:xlink="http://www.w3.org/1999/xlink" x="0px" y="0px"
	 viewBox="0 0 120 120" style="enable-background:new 0 0 120 120;" xml:space="preserve">
<style type="text/css">
	.st0{fill:#3E3E3C;}
</style>
<path class="st0" d="M120,102.5v5.5c0,6.5-5.5,12-12,12H12c-6.5,0-12-5.5-12-12v-5.5C0,88,17,79,33,72l1.5-0.8
	c1.2-0.5,2.5-0.5,3.8,0.2C44.8,75.8,52,78,59.8,78s15.2-2.5,21.5-6.5c1.2-0.8,2.5-0.8,3.8-0.2l1.5,0.8C103,79,120,87.8,120,102.5z
	 M60,0c16.5,0,29.8,14.8,29.8,33S76.5,66,60,66S30.3,51.2,30.3,33S43.5,0,60,0z"/>
</svg>
