<svg id="Layer_1" data-name="Layer 1" xmlns="http://www.w3.org/2000/svg" viewBox="0 0 120 120"><defs><style>.cls-1{fill:#3e3e3c;}</style></defs><title>00 tab_icons</title><path class="cls-1" d="M114.7,12.18,66,19.37V88.05a1.89,1.89,0,0,1-2,2H56a1.89,1.89,0,0,1-2-2V21.16l-47.12,7h-.8a6,6,0,0,1-1-12l37.13-5.59A20.19,20.19,0,0,1,59.79,0a19.45,19.45,0,0,1,14,5.79L113.11.2a6,6,0,0,1,6.78,5A6.24,6.24,0,0,1,114.7,12.18ZM42.62,85.86a5.8,5.8,0,0,0,.8-6.19l-16-37.94a5.66,5.66,0,0,0-5.39-3.59,6.12,6.12,0,0,0-5.59,3.59L.49,79.67a6.17,6.17,0,0,0,.4,5.59c.4.6,8.19,12.58,20.77,12.58C29.05,97.84,36.23,93.84,42.62,85.86ZM22.06,59.5l8.58,20.57H13.47Zm81.46-29.75a6.15,6.15,0,0,0-11.18,0l-16,37.94a6.17,6.17,0,0,0,.4,5.59c.4.6,8.18,12.58,20.76,12.58q11.09,0,21-12a5.82,5.82,0,0,0,.79-6.19ZM97.93,47.52l8.59,20.57H89.34ZM60,102c-11.18,0-22.56,4-30.55,10.78a4.28,4.28,0,0,0-1.39,3v.2a4,4,0,0,0,4,4H88a4,4,0,0,0,4-4v-.2a3.6,3.6,0,0,0-1.4-3C82.56,106,71.18,102,60,102Z"/></svg>