<?xml version="1.0" encoding="utf-8"?>
<!-- Generator: Adobe Illustrator 22.1.0, SVG Export Plug-In . SVG Version: 6.00 Build 0)  -->
<svg version="1.1" id="Layer_1" xmlns="http://www.w3.org/2000/svg" xmlns:xlink="http://www.w3.org/1999/xlink" x="0px" y="0px"
	 viewBox="0 0 80 80" style="enable-background:new 0 0 80 80;" xml:space="preserve">
<style type="text/css">
	.st0{fill:#3E3E3C;}
</style>
<path class="st0" d="M50.9,4.8v17.4c-3.5,1.1-6.6,3.2-9,6c-3.3,3.9-5,9.1-5,14.6c0,4.7,1.4,9.1,4,12.7c-2.9,1.3-5.3,2.7-7.5,4.4
	c-1.3,1-2.3,2-3.2,3.1H10c-2.7,0-5-2.2-5-5V4.8c0-2.7,2.2-5,5-5h36C48.7-0.2,50.9,2,50.9,4.8z M40,13.2v-1.5c0-1-0.8-1.8-1.8-1.8
	H16.8c-1,0-1.8,0.8-1.8,1.8v1.5c0,1,0.8,1.8,1.8,1.8h21.5C39.2,15,40,14.2,40,13.2z M40,28.2v-1.5c0-1-0.8-1.8-1.8-1.8H16.8
	c-1,0-1.8,0.8-1.8,1.8v1.5c0,1,0.8,1.8,1.8,1.8h21.5C39.2,30,40,29.2,40,28.2z M30,43.1v-1.2c0-1.1-0.9-1.9-1.9-1.9H16.9
	c-1.1,0-1.9,0.9-1.9,1.9v1.2c0,1.1,0.9,1.9,1.9,1.9h11.2C29.1,45,30,44.1,30,43.1z M79.7,73.4c0,3.7-2.8,6.8-6.3,6.8H41.2
	c-3.6,0-6.3-3.1-6.3-6.8c0.2-5.6,6-8.5,12.2-11.1c4.3-1.9,5-3.4,5-5.3c0-1.7-1.2-3.4-2.6-4.8c-2.5-2.3-3.9-5.6-3.9-9.3
	c0-7,4.2-13,11.8-13s11.8,6,11.8,13c0,3.7-1.4,7-3.9,9.3c-1.4,1.2-2.6,2.9-2.6,4.8c0,1.7,0.8,3.4,5,5.3C73.7,65,79.6,68,79.7,73.4z"
	/>
</svg>
