<svg xmlns="http://www.w3.org/2000/svg" xmlns:xlink="http://www.w3.org/1999/xlink" id="Layer_1" x="0" y="0" enable-background="new 0 0 120 120" version="1.1" viewBox="0 0 120 120" xml:space="preserve"><style type="text/css">.st0{fill:#3e3e3c}</style><g><path d="M118.9,108.1L85.4,74.9c6.7-9.5,10.2-21.5,8.5-34.2c-3-21.5-20.5-38.5-42.2-40.5c-29.5-3-54.4,22-51.4,51.7 c2,21.5,19,39.2,40.5,42.2c12.7,1.7,24.7-1.7,34.2-8.5l33.2,33.2c1.5,1.5,3.7,1.5,5.2,0l5.2-5.2 C120.1,112.1,120.1,109.6,118.9,108.1z M47.2,79.4C29.5,79.4,15,65.2,15,47.2C15,29.5,29.5,15,47.2,15s32.2,14.5,32.2,32.2 S64.9,79.4,47.2,79.4z" class="st0"/><path d="M57.2,53.6c-4.1-1.6-4.7-3.3-4.7-4.9c0-1.6,1.2-3.3,2.7-4.4c2.5-2.1,3.9-5.2,3.9-8.6c0-0.5,0-1.1-0.1-1.6 c-0.6-5.7-4.7-10.4-11.4-10.6c-0.1,0-0.2,0-0.4,0s-0.2,0-0.4,0c-6.7,0.2-10.7,4.9-11.4,10.6c-0.1,0.5-0.1,1-0.1,1.6 c0,3.4,1.3,6.5,3.9,8.6c1.5,1.2,2.7,2.8,2.7,4.4c0,1.6-0.6,3.3-4.7,4.9c-4.1,1.6-7.9,3.4-10,5.9c4.2,6.7,11.6,11.2,20.1,11.2 S63,66.2,67.2,59.5C65,57.1,61.2,55.3,57.2,53.6z" class="st0"/></g></svg>