<svg xmlns="http://www.w3.org/2000/svg" xmlns:xlink="http://www.w3.org/1999/xlink" id="Layer_1" x="0" y="0" enable-background="new 0 0 120 120" version="1.1" viewBox="0 0 120 120" xml:space="preserve"><style type="text/css">.st0{fill:#3e3e3c}</style><path d="M72.9,8.7c-13,0-23.4,11.6-23.4,25.9c0,5.3,1.4,10.2,3.8,14.3c2,3.4,4.7,6.2,7.9,8.2c3.4,2.2,7.4,3.4,11.6,3.4	c13,0,23.4-11.6,23.4-25.9C96.2,20.3,85.8,8.7,72.9,8.7z M93.7,65.3l-1.1-0.6c0,0,0,0-0.1,0c-1-0.4-1.9-0.4-2.9,0.2	C84.6,68,78.8,70,72.7,70c-3.4,0-6.6-0.5-9.7-1.6c-0.2-0.1-0.5,0-0.6,0.3c-0.6,1.4-1.5,2.8-2.6,3.9L56,76.4c-1,1-2.2,1.8-3.5,2.4	c-0.4,0.2-0.4,0.7,0,0.9c1.7,0.8,3.6,1.3,5.6,1.5l0.3,0c0,0,0,0,0,0l0.3,0.1c6.3,1.1,10.8,6.1,10.8,12.2V99c0,5-3.1,9.4-7.5,11.3	c-0.5,0.2-0.4,1,0.2,1h47.9c5.5,0,9.9-4.5,9.9-9.9V89.2C120,77.7,106.7,70.8,93.7,65.3C93.7,65.3,93.7,65.3,93.7,65.3z M56.9,101.8	c-19-1.5-34.7-18-34.7-35.9v-4.7c0-1.5-2.2-2.5-3.5-1.2l-10.5,10c-1,1-2.7,0.7-3.7-0.2l-3.7-3.7c-1-1-1-2.7,0-3.7L25,37.9	c1-1,2.7-1,3.7,0l24.2,24.2c1,1,1,2.7,0,3.7l-3.7,3.7c-1,1-2.7,1-3.7,0l-10-10c-1-1.2-3-0.2-3,1.2v3c0,14.2,11.2,25.7,24.7,26.9	c1.5,0.2,2.7,1.2,2.7,2.7V99C59.9,100.5,58.6,101.8,56.9,101.8z" class="st0"/></svg>