<?xml version="1.0" encoding="utf-8"?>
<!-- Generator: Adobe Illustrator 22.1.0, SVG Export Plug-In . SVG Version: 6.00 Build 0)  -->
<svg version="1.1" id="Layer_1" xmlns="http://www.w3.org/2000/svg" xmlns:xlink="http://www.w3.org/1999/xlink" x="0px" y="0px"
	 viewBox="0 0 120 120" style="enable-background:new 0 0 120 120;" xml:space="preserve">
<style type="text/css">
	.st0{fill:#3E3E3C;}
</style>
<g>
	<path class="st0" d="M36.8,64.7c-3.2-4.9-4.9-10.4-4.9-16.6c0-10.6,4.4-19.4,11.3-24.7c-2.3-4.2-6.9-7.2-12.9-7.2
		c-10.2,0-16,8.3-16,17.8c0,5.1,1.6,9.5,5.1,12.5c1.8,1.8,3.5,4.2,3.5,6.5c0,2.3-0.9,4.6-6.7,7.2C7.9,63.8,0.2,68.9,0,76.5
		c0.2,5.1,3.5,9,8.3,9H16c1.2,0,2.3-0.7,3-1.8c3.7-6.7,10.6-10.9,16.4-13.9C37.5,68.9,37.9,66.4,36.8,64.7z M104.3,60.1
		c-5.8-2.5-6.7-4.6-6.7-7.2c0-2.5,1.6-4.9,3.5-6.5c3.5-3.2,5.1-7.4,5.1-12.5c0-9.5-5.5-17.8-16-17.8c-6,0-10.6,3-13.2,7.2
		c6.9,5.3,11.3,14.1,11.3,24.7c0,6.2-1.6,11.8-4.9,16.6c-1.2,1.8-0.5,4.2,1.4,5.1c5.8,2.8,12.7,7.2,16.4,13.9c0.7,1.2,1.8,1.8,3,1.8
		h7.6c4.9,0,8.1-3.9,8.1-9C120.2,68.9,112.6,63.8,104.3,60.1z M75.6,77c-6.2-2.8-7.4-5.3-7.4-7.9c0-2.8,1.8-5.3,3.9-7.2
		c3.7-3.5,5.8-8.3,5.8-13.9c0-10.4-6.2-19.4-17.6-19.4s-17.6,9-17.6,19.4c0,5.5,2.1,10.4,5.8,13.9c2.1,2.1,3.9,4.6,3.9,7.2
		c0,2.8-0.9,5.1-7.4,7.9c-9.2,3.9-18,8.3-18.3,16.6c0,5.5,4.2,10.2,9.5,10.2h48.1c5.3,0,9.5-4.6,9.5-10.2
		C93.6,85.5,84.9,81.2,75.6,77z"/>
</g>
</svg>
