<?xml version="1.0" encoding="utf-8"?>
<!-- Generator: Adobe Illustrator 22.1.0, SVG Export Plug-In . SVG Version: 6.00 Build 0)  -->
<svg version="1.1" id="Layer_1" xmlns="http://www.w3.org/2000/svg" xmlns:xlink="http://www.w3.org/1999/xlink" x="0px" y="0px"
	 viewBox="0 0 120 120" style="enable-background:new 0 0 120 120;" xml:space="preserve">
<style type="text/css">
	.st0{fill:#3E3E3C;}
</style>
<path class="st0" d="M34.3,94.5c0,9.5-7.7,17.1-17.1,17.1S0,104,0,94.5s7.7-17.1,17.1-17.1S34.3,85,34.3,94.5z M102.9,77.1
	c-9.5,0-17.1,7.7-17.1,17.1s7.7,17.1,17.1,17.1s17.1-7.7,17.1-17.1S112.3,77.1,102.9,77.1z M102.3,28.6C92.7,16.3,77.7,8.3,60.9,8.3
	c-27.5,0-50,21.2-52.2,48.1c-0.2,2.3,1.6,4.2,3.9,4.2h0c2,0,3.7-1.5,3.9-3.5c1.8-18.4,17.3-32.9,36.2-32.9
	c11.2,0,21.2,5.1,27.9,13.1l-11.9,4.8c-3.4,1.4-3.2,6.2,0.2,7.4L88.7,56l10.8,3.6c1.8,0.6,3.8-0.2,4.7-1.9l6.7-12.6v0l8.4-15.9
	c1.7-3.2-1.5-6.8-4.9-5.5L102.3,28.6z"/>
</svg>
